<svg xmlns="http://www.w3.org/2000/svg" width="64" height="64" viewBox="0 0 64 64"><g><g><path fill="#ba271f" d="M64 32c0 17.673-14.327 32-32 32C14.327 64 0 49.673 0 32 0 14.327 14.327 0 32 0c17.673 0 32 14.327 32 32zm-2.025-1a29.877 29.877 0 0 0-8.102-19.52 39.921 39.921 0 0 1-7.515 3.853A39.805 39.805 0 0 1 49.972 31zm-19.37 20.505A37.956 37.956 0 0 0 33 50.035v11.94c.111-.004.223-.004.333-.01a38.208 38.208 0 0 0 9.273-10.46zm-5.71 10.09a29.869 29.869 0 0 0 14.177-6.437 37.913 37.913 0 0 0-6.523-3.018 40.19 40.19 0 0 1-7.655 9.456zm-6.228.37c.11.006.222.006.333.01v-11.94c-3.324.087-6.548.58-9.606 1.47a38.209 38.209 0 0 0 9.273 10.46zM19.45 52.14a37.81 37.81 0 0 0-6.523 3.017 29.863 29.863 0 0 0 14.178 6.439 40.161 40.161 0 0 1-7.655-9.456zM14.028 31a39.805 39.805 0 0 1 3.614-15.667 39.92 39.92 0 0 1-7.515-3.854A29.877 29.877 0 0 0 2.025 31zM33.333 2.034c-.11-.005-.222-.005-.333-.009v13.937a37.916 37.916 0 0 0 10.57-1.765A38.177 38.177 0 0 0 33.333 2.034zm12.138 11.491a37.77 37.77 0 0 0 6.944-3.499 29.89 29.89 0 0 0-15.52-7.622 40.125 40.125 0 0 1 8.576 11.121zM30.667 2.034A38.176 38.176 0 0 0 20.43 14.197 37.916 37.916 0 0 0 31 15.962V2.025c-.111.004-.223.004-.333.009zm-3.561.37a29.89 29.89 0 0 0-15.521 7.622 37.764 37.764 0 0 0 6.944 3.5 40.125 40.125 0 0 1 8.577-11.122zM16.03 31H31V17.98a39.867 39.867 0 0 1-11.468-1.971A37.768 37.768 0 0 0 16.032 31zm0 2c.156 6.03 1.701 11.712 4.354 16.726A39.879 39.879 0 0 1 31 48.036V33zm27.584 16.726C46.268 44.712 47.812 39.029 47.97 33h-14.97v15.036c3.685.092 7.246.665 10.616 1.69zM47.97 31a37.77 37.77 0 0 0-3.501-14.991A39.867 39.867 0 0 1 33 17.98V31zM11.366 53.766a39.869 39.869 0 0 1 7.11-3.397A39.782 39.782 0 0 1 14.028 33H2.025c.269 8.172 3.802 15.513 9.341 20.766zM61.975 33H49.972a39.78 39.78 0 0 1-4.448 17.37c2.496.899 4.872 2.043 7.11 3.396 5.539-5.253 9.072-12.594 9.34-20.766z"/></g></g></svg>