<svg xmlns="http://www.w3.org/2000/svg" width="40" height="64" viewBox="0 0 40 64"><g><g><path fill="#ba271f" d="M40 4v56c0 2.211-1.79 4-4 4H4c-2.211 0-4-1.789-4-4V4C0 1.79 1.789 0 4 0h32c2.21 0 4 1.789 4 4zm-2 48H2v8a2 2 0 0 0 2 2h32a2 2 0 0 0 2-2zm0-42H2v40h36zm0-6a2 2 0 0 0-2-2H4a2 2 0 0 0-2 2v4h36zM17 57c0-1.658 1.342-3 3-3s3 1.342 3 3-1.342 3-3 3-3-1.342-3-3zm2 0a1 1 0 1 0 1.999.001 1 1 0 0 0-1.999 0zm3-52a1 1 0 0 1-1 1h-6a1 1 0 1 1 0-2h6a1 1 0 0 1 1 1zm4 0a1 1 0 1 1-1.999.001A1 1 0 0 1 26 5z"/></g></g></svg>