<svg xmlns="http://www.w3.org/2000/svg" width="64" height="64" viewBox="0 0 64 64"><g><g><path fill="#ba271f" d="M64 52v8c0 2.211-1.79 4-4 4H4c-2.21 0-4-1.789-4-4v-8c0-1.656.672-3.156 1.758-4.242l-.014-.014a47.848 47.848 0 0 1 20.492-9.722A13.95 13.95 0 0 1 18 28a3 3 0 0 1-3-3v-2c0-.885.39-1.673 1-2.222V12c0-6.627 5.373-12 12-12h8c6.627 0 12 5.373 12 12v8.778c.61.549 1 1.337 1 2.222v2a3 3 0 0 1-3 3c0 3.932-1.626 7.48-4.235 10.023a47.841 47.841 0 0 1 20.49 9.721l-.013.014A5.982 5.982 0 0 1 64 52zM18 19a6 6 0 0 1 6-6 4 4 0 0 0 4-4 1 1 0 1 1 2 0 4 4 0 0 0 4 4h6a6 6 0 0 1 6 6v-7c0-5.523-4.478-10-10-10h-8c-5.523 0-10 4.477-10 10zm14 21c6.627 0 12-5.373 12-12v-1a1 1 0 0 1 1-1h1a1 1 0 0 0 1-1v-2a1 1 0 0 0-1-1h-1a1 1 0 0 1-1-1v-2a4 4 0 0 0-4-4h-6a5.993 5.993 0 0 1-5-2.687A5.992 5.992 0 0 1 24 15a4 4 0 0 0-4 4v2a1 1 0 0 1-1 1h-1a1 1 0 0 0-1 1v2a1 1 0 0 0 1 1h1a1 1 0 0 1 1 1v1c0 6.627 5.373 12 12 12zm-7.715-.322a45.861 45.861 0 0 0-4.933 1.096C22.602 43.99 27.04 46 31.972 46c4.939 0 9.383-2.016 12.634-5.238a45.887 45.887 0 0 0-4.891-1.085A13.925 13.925 0 0 1 32 42c-2.853 0-5.502-.857-7.715-2.323zM62 52a3.983 3.983 0 0 0-1.172-2.828l.004-.004a45.928 45.928 0 0 0-14.089-7.728C43.088 45.462 37.835 48 31.973 48c-5.856 0-11.104-2.533-14.76-6.546a45.923 45.923 0 0 0-14.045 7.714l.004.004A3.983 3.983 0 0 0 2 52v8a2 2 0 0 0 2 2h56a2 2 0 0 0 2-2zM24.098 20.565c.282-.581 1.209-1.565 2.9-1.565 1.653 0 2.594.969 2.889 1.542a1 1 0 1 1-1.778.916c-.015-.022-.303-.458-1.111-.458-.818 0-1.088.419-1.116.467-.272.464-.87.65-1.345.395a.981.981 0 0 1-.44-1.297zm10.002 0C34.382 19.984 35.309 19 37 19c1.653 0 2.594.969 2.889 1.542a1 1 0 1 1-1.778.916C38.096 21.436 37.808 21 37 21c-.818 0-1.088.419-1.116.467-.272.464-.87.65-1.345.395a.981.981 0 0 1-.44-1.297z"/></g></g></svg>