<svg xmlns="http://www.w3.org/2000/svg" width="64" height="64"><path fill="#ba271f" d="M64 32c0 17.673-14.327 32-32 32C14.327 64 0 49.673 0 32 0 14.327 14.327 0 32 0c17.673 0 32 14.327 32 32zm-2 0C62 15.43 48.57 2 32 2S2 15.43 2 32c0 16.569 13.43 30 30 30s30-13.431 30-30zm-30 1a1 1 0 11-.001-1.999A1 1 0 0132 33zm13.435 8.192a3 3 0 11-4.242 4.243l-8.506-8.505c-.226.032-.452.07-.687.07a5 5 0 01-5-5c0-1.63.792-3.064 2-3.978V14a3 3 0 116 0v14.022c1.208.914 2 2.347 2 3.978 0 .236-.038.461-.07.688zM31 27.101a5.03 5.03 0 012 0V14a1 1 0 10-2 0zM32 35a3 3 0 100-6 3 3 0 000 6zm12.02 7.606l-7.851-7.852a5.018 5.018 0 01-1.415 1.415l7.852 7.853a1 1 0 101.414-1.416zM60 32c0 15.464-12.536 28-28 28S4 47.464 4 32 16.536 4 32 4s28 12.536 28 28zm-2.025 1H55a1 1 0 110-2h2.975a25.896 25.896 0 00-6.9-16.661l-2.105 2.105a1 1 0 01-1.414-1.415l2.104-2.104A25.892 25.892 0 0033 6.025V9a1 1 0 11-2 0V6.025a25.894 25.894 0 00-16.661 6.9l2.104 2.105a1 1 0 11-1.414 1.414l-2.104-2.103A25.897 25.897 0 006.025 31H9a1 1 0 110 2H6.025a25.9 25.9 0 006.9 16.66l2.105-2.102a1 1 0 111.414 1.414l-2.103 2.103A25.893 25.893 0 0031 57.974l.001-2.973a1 1 0 112 0L33 57.974a25.89 25.89 0 0016.66-6.9l-2.103-2.103a1 1 0 011.415-1.415l2.102 2.104a25.89 25.89 0 006.9-16.66z"/></svg>