<svg xmlns="http://www.w3.org/2000/svg" width="64" height="64"><path fill="#ba271f" d="M64 32c0 17.673-14.327 32-32 32C14.327 64 0 49.673 0 32 0 14.327 14.327 0 32 0c17.673 0 32 14.327 32 32zm-2.025-1a29.877 29.877 0 00-8.102-19.52 39.921 39.921 0 01-7.515 3.853A39.805 39.805 0 0149.972 31zm-19.37 20.505A37.956 37.956 0 0033 50.035v11.94c.111-.004.223-.004.333-.01a38.208 38.208 0 009.273-10.46zm-5.71 10.09a29.869 29.869 0 0014.177-6.437 37.913 37.913 0 00-6.523-3.018 40.19 40.19 0 01-7.655 9.456zm-6.228.37c.11.006.222.006.333.01v-11.94c-3.324.087-6.548.58-9.606 1.47a38.209 38.209 0 009.273 10.46zM19.45 52.14a37.81 37.81 0 00-6.523 3.017 29.863 29.863 0 0014.178 6.439 40.161 40.161 0 01-7.655-9.456zM14.028 31a39.805 39.805 0 013.614-15.667 39.92 39.92 0 01-7.515-3.854A29.877 29.877 0 002.025 31zM33.333 2.034c-.11-.005-.222-.005-.333-.009v13.937a37.916 37.916 0 0010.57-1.765A38.177 38.177 0 0033.333 2.034zm12.138 11.491a37.77 37.77 0 006.944-3.499 29.89 29.89 0 00-15.52-7.622 40.125 40.125 0 018.576 11.121zM30.667 2.034A38.176 38.176 0 0020.43 14.197 37.916 37.916 0 0031 15.962V2.025c-.111.004-.223.004-.333.009zm-3.561.37a29.89 29.89 0 00-15.521 7.622 37.764 37.764 0 006.944 3.5 40.125 40.125 0 018.577-11.122zM16.03 31H31V17.98a39.867 39.867 0 01-11.468-1.971A37.768 37.768 0 0016.032 31zm0 2c.156 6.03 1.701 11.712 4.354 16.726A39.879 39.879 0 0131 48.036V33zm27.584 16.726C46.268 44.712 47.812 39.029 47.97 33H33v15.036a39.85 39.85 0 0110.616 1.69zM47.97 31a37.77 37.77 0 00-3.501-14.991A39.867 39.867 0 0133 17.98V31zM11.366 53.766a39.869 39.869 0 017.11-3.397A39.782 39.782 0 0114.028 33H2.025c.269 8.172 3.802 15.513 9.341 20.766zM61.975 33H49.972a39.78 39.78 0 01-4.448 17.37 39.829 39.829 0 017.11 3.396c5.539-5.253 9.072-12.594 9.34-20.766z"/></svg>